<svg xmlns="http://www.w3.org/2000/svg">

    <!-- registration request -->
    <symbol id="regRequest" viewBox="0 0 235 210">
        <title>Registration Request</title>
        <desc>Registration Request</desc>
        <path d="M207,154H179v28H165V154H137V140h28V112h14v28h28Zm28-7a63,63,0,0,1-125.6,7h-88A21.4,21.4,0,0,1,0,132.63V21.38A21.4,21.4,0,0,1,21.38,0H174.63A21.4,21.4,0,0,1,196,21.38V88.76A63.09,63.09,0,0,1,235,147ZM14,28H182V21.38A7.37,7.37,0,0,0,174.63,14H21.38A7.37,7.37,0,0,0,14,21.38Zm7.38,112h88A63,63,0,0,1,182,84.8V42H14v90.63A7.37,7.37,0,0,0,21.38,140ZM221,147a49,49,0,1,0-49,49A49,49,0,0,0,221,147ZM112,98H70v14h42Zm42-28H70V84h84ZM42,84H56V70H42Zm0,28H56V98H42Z"/>
    </symbol>

    <!-- de-registration request -->
    <symbol id="deRegRequest" viewBox="0 0 235 210">
        <title>De-registration Request</title>
        <desc>De-registration Request</desc>
        <path d="M207,154H137V140h70Zm28-7a63,63,0,0,1-125.6,7h-88A21.4,21.4,0,0,1,0,132.63V21.38A21.4,21.4,0,0,1,21.38,0H174.63A21.4,21.4,0,0,1,196,21.38V88.76A63.09,63.09,0,0,1,235,147ZM14,28H182V21.38A7.37,7.37,0,0,0,174.63,14H21.38A7.37,7.37,0,0,0,14,21.38Zm7.38,112h88A63,63,0,0,1,182,84.8V42H14v90.63A7.37,7.37,0,0,0,21.38,140ZM221,147a49,49,0,1,0-49,49A49,49,0,0,0,221,147ZM154,70H70V84h84ZM112,98H70v14h42ZM42,84H56V70H42Zm0,28H56V98H42Z"/>
    </symbol>

    <!-- awaiting documents -->
    <symbol id="awaitingDoc" viewBox="0 0 235 210">
        <title>Awaiting Documents</title>
        <desc>Awaiting Documents</desc>
        <path d="M235,147a63,63,0,0,1-125.6,7h-88A21.4,21.4,0,0,1,0,132.63V21.38A21.4,21.4,0,0,1,21.38,0H174.63A21.4,21.4,0,0,1,196,21.38V88.76A63.09,63.09,0,0,1,235,147ZM14,28H182V21.38A7.37,7.37,0,0,0,174.63,14H21.38A7.37,7.37,0,0,0,14,21.38Zm7.38,112h88A63,63,0,0,1,182,84.8V42H14v90.63A7.37,7.37,0,0,0,21.38,140ZM221,147a49,49,0,1,0-49,49A49,49,0,0,0,221,147ZM154,70H70V84h84ZM112,98H70v14h42ZM42,84H56V70H42Zm0,28H56V98H42Zm140.8,4.56a8,8,0,1,1-8-8A8,8,0,0,1,182.8,116.56Zm-30.15,2a8,8,0,1,0,8,8A8,8,0,0,0,152.65,118.57Zm0,46.24a6,6,0,1,0,6,6A6,6,0,0,0,152.65,164.81Zm22.11,10.12a5,5,0,1,0,5,5A5,5,0,0,0,174.76,174.93Zm22.11-8.08a4,4,0,1,0,4,4A4,4,0,0,0,196.87,166.85ZM206,144.77a3,3,0,1,0,3,3A3,3,0,0,0,206,144.77Zm-7.1-20.17a2,2,0,1,0,2,2A2,2,0,0,0,198.88,124.6Zm-55.34,16a7,7,0,1,0,7,7A7,7,0,0,0,143.54,140.62Z"/>
    </symbol>

    <!-- information requested -->
    <symbol id="infoReq" viewBox="0 0 235 199">
        <title>Information Requested</title>
        <desc>Information Requested</desc>
        <path d="M154,84.11H70v-14h84Zm-84,28h42v-14H70Zm-28,0H56v-14H42Zm0-28H56v-14H42ZM89.51,199l25.83-44.81h-94A21.41,21.41,0,0,1,0,132.79V21.4A21.41,21.41,0,0,1,21.38,0H174.63A21.41,21.41,0,0,1,196,21.4v110L235,199Zm121.24-14-48.5-84.1L113.76,185ZM14,28H182V21.4A7.37,7.37,0,0,0,174.63,14H21.38A7.37,7.37,0,0,0,14,21.4ZM123.43,140.18l38.82-67.34L182,107.09v-65H14v90.74a7.38,7.38,0,0,0,7.38,7.39Zm39.23,25.91a6,6,0,0,0,0,11.95,5.68,5.68,0,0,0,5.75-6A5.61,5.61,0,0,0,162.66,166.09Zm3.91-6.84,1.09-37.61h-10l1.1,37.61Z"/>
    </symbol>

    <!-- help -->
    <symbol id="help" viewBox="0 0 128 128">
        <title>Help</title>
        <desc>Help</desc>
        <path d="M64,128a64,64,0,1,1,64-64A64.07,64.07,0,0,1,64,128ZM64,9.75A54.25,54.25,0,1,0,118.25,64,54.32,54.32,0,0,0,64,9.75ZM59.82,80.64c-2.94-9.39,2-13.77,5-14.77l.75-.24h.79A13.11,13.11,0,1,0,53.23,52.52H43.48A22.86,22.86,0,1,1,68.66,75.26a8.85,8.85,0,0,0,.47,2.46Zm8.92-6Zm.54,13.79H59.53v9.75h9.75Z"/>
    </symbol>

    <!-- help i -->
    <symbol id="helpi" viewBox="0 0 128 128">
        <title>Help</title>
        <desc>Help</desc>
        <circle cx="64" cy="64" r="60.5" fill="#fff"/>
        <path d="M64,7A57,57,0,1,1,7,64,57.06,57.06,0,0,1,64,7m0-7a64,64,0,1,0,64,64A64,64,0,0,0,64,0Z"/>
        <path d="M53.12,100.57q-3.27-3.33-3.27-10a37.9,37.9,0,0,1,.89-7.21l7.54-35.63h16l-8,37.74A13.54,13.54,0,0,0,65.83,89a4,4,0,0,0,1.06,3.16,5.17,5.17,0,0,0,3.49,1,8.82,8.82,0,0,0,3.55-.67Q73.5,98,70,101a12.43,12.43,0,0,1-8.27,2.94A11.52,11.52,0,0,1,53.12,100.57Zm9.94-61.38A8.42,8.42,0,0,1,60.5,33a8.63,8.63,0,0,1,2.56-6.28,8.38,8.38,0,0,1,6.21-2.6A8.89,8.89,0,0,1,78.15,33a8.35,8.35,0,0,1-2.61,6.21,8.65,8.65,0,0,1-6.27,2.55A8.45,8.45,0,0,1,63.06,39.19Z"/>
    </symbol>

    <!-- inreview registration -->
    <symbol id="inrevReg" viewBox="0 0 236.87 207.75">
        <title>Inreview Registration</title>
        <desc>Inreview Registration</desc>
        <path d="M154,70H70V84h84ZM112,98H70v14h42ZM42,84H56V70H42Zm0,28H56V98H42Zm148,34H172v18H158V146H140V132h18V114h14v18h18Zm18.84,24.52A54,54,0,0,0,196,94.8V21.38A21.4,21.4,0,0,0,174.63,0H21.38A21.4,21.4,0,0,0,0,21.38V132.63A21.4,21.4,0,0,0,21.38,154h91.75a54,54,0,0,0,86.13,26.74l27.87,27,9.74-10.05ZM14,21.38A7.37,7.37,0,0,1,21.38,14H174.63A7.37,7.37,0,0,1,182,21.38V28H14ZM109.4,140h-88A7.37,7.37,0,0,1,14,132.63V42H182V87.75A54,54,0,0,0,111,139c0,.34,0,.67,0,1ZM165,179a40,40,0,1,1,40-40A40,40,0,0,1,165,179Z"/>
    </symbol>

    <!-- inreview de-registration -->
    <symbol id="inrevDeReg" viewBox="0 0 236.87 207.75">
        <title>Inreview De-registration</title>
        <desc>Inreview De-registration</desc>
        <path d="M154,70H70V84h84ZM112,98H70v14h42ZM42,84H56V70H42Zm0,28H56V98H42Zm148,34H140V132h50Zm18.84,24.52A54,54,0,0,0,196,94.8V21.38A21.4,21.4,0,0,0,174.63,0H21.38A21.4,21.4,0,0,0,0,21.38V132.63A21.4,21.4,0,0,0,21.38,154h91.75a54,54,0,0,0,86.13,26.74l27.87,27,9.74-10.05ZM14,21.38A7.37,7.37,0,0,1,21.38,14H174.63A7.37,7.37,0,0,1,182,21.38V28H14ZM109.4,140h-88A7.37,7.37,0,0,1,14,132.63V42H182V87.75A54,54,0,0,0,111,139c0,.34,0,.67,0,1ZM165,179a40,40,0,1,1,40-40A40,40,0,0,1,165,179Z"/>
    </symbol>

</svg>